<?xml version="1.0" encoding="utf-8"?>
<!-- Generator: Adobe Illustrator 21.0.0, SVG Export Plug-In . SVG Version: 6.00 Build 0)  -->
<svg version="1.1" id="Layer_1" xmlns="http://www.w3.org/2000/svg" xmlns:xlink="http://www.w3.org/1999/xlink" x="0px" y="0px"
	 viewBox="0 0 612 792" style="enable-background:new 0 0 612 792;" xml:space="preserve">
<style type="text/css">
	.st0{fill-rule:evenodd;clip-rule:evenodd;fill:#0C191F;}
	.st1{fill-rule:evenodd;clip-rule:evenodd;fill:#418786;}
	.st2{fill-rule:evenodd;clip-rule:evenodd;fill:#A8DCC0;}
</style>
<g>
	<path class="st0 icon-border carinha-icon carinha-decepcionada1" d="M304.8,522.6c-66.6-3.6-117.9-33.1-145.1-94C133.1,368.7,144.5,313,188,263.1c10.1-11.6,18.4-24.7,27.6-37.1
		c5.9-7.9,11.9-12.4,20.9-2.8c1.9,1.9,8.3,1.3,11.9,0c73.1-26.4,153.8-0.3,193.6,64c31.4,50.7,32.8,103.5,3.3,155.1
		C415.4,494.5,367.3,519.7,304.8,522.6z M191.2,283.8C145.4,336.3,153,421,206.9,469.6c57.1,51.5,143.8,50.8,199.9-1.6
		c54.8-51.2,58.4-135.9,9.2-191.6c-48.4-54.8-129.1-58.7-165.3-36.2c17.4,35.3,16.2,54.2-4,63.3C224,313.6,200.6,305.6,191.2,283.8z
		 M229.1,235.7c-1.6,0-3.1,0.1-4.6,0.1c-5.6,10.9-12.7,21.4-16.3,32.9c-1.9,6,0.8,18.6,4.3,19.7c9,2.8,20.3,3,29.2,0
		c3.9-1.3,7.4-13.8,5.5-19.5C243.1,257.2,235.3,246.7,229.1,235.7z"/>
	<path class="st1 icon" d="M191.2,283.8c9.4,21.8,32.8,29.8,55.4,19.7c20.2-9.1,21.5-28,4-63.3c36.3-22.6,117-18.6,165.3,36.2
		c49.2,55.7,45.7,140.4-9.2,191.6c-56.1,52.4-142.8,53.1-199.9,1.6C153,421,145.4,336.3,191.2,283.8z M312.3,398.3
		c-9.5,1.1-19.2,1.2-28.4,3.3c-24,5.4-43.9,28.9-42.8,50.3c0.2,3.4,4.2,6.6,6.4,9.8c2.6-2.7,5.5-5.2,7.8-8.1
		c0.9-1.1,0.4-3.1,0.6-4.7c3.5-20.5,19.5-34.5,41-35.4c7.1-0.3,14.2-0.2,21.2-0.2c30,0.1,43.5,11,50.3,39.6c0.8,3.4,5.2,5.9,7.9,8.9
		c2.2-3.7,6.8-8.1,6-11.1c-2.7-9.9-5.7-20.4-11.7-28.7C357,402.4,335.6,398.1,312.3,398.3z M273.4,333.8c-1.1-1.4-3.1-5.4-6.2-6.5
		c-1.7-0.6-7.2,3.1-7.8,5.5c-2.5,10.8-8.6,16.6-19.8,19c-2.6,0.5-4.3,5.4-6.5,8.3c2.9,1.7,5.7,4.7,8.7,5
		C255.8,366.1,273.3,349.8,273.4,333.8z M370.6,365.5c1.1-0.8,5.4-2.3,6.1-4.8c0.6-2.2-2.3-7.4-4.5-7.8c-12-2.6-18.4-9.6-21-21
		c-0.5-2.2-5.6-5.5-6.8-4.9c-2.7,1.3-5.7,4.6-6.2,7.4C336.2,348.3,353.2,365.7,370.6,365.5z"/>
	<path class="st2 icon-color2" d="M229.1,235.7c6.2,11,14,21.5,18,33.2c1.9,5.6-1.5,18.2-5.5,19.5c-8.9,3-20.2,2.9-29.2,0
		c-3.5-1.1-6.1-13.8-4.3-19.7c3.6-11.5,10.7-22,16.3-32.9C226.1,235.8,227.6,235.7,229.1,235.7z"/>
	<path class="st0 icon-border" d="M312.3,398.3c23.3-0.2,44.7,4.2,58.6,23.7c5.9,8.3,8.9,18.8,11.7,28.7c0.8,3-3.9,7.3-6,11.1
		c-2.7-2.9-7.1-5.5-7.9-8.9c-6.8-28.6-20.3-39.5-50.3-39.6c-7.1,0-14.2-0.1-21.2,0.2c-21.5,0.9-37.6,14.9-41,35.4
		c-0.3,1.6,0.2,3.6-0.6,4.7c-2.3,2.9-5.1,5.4-7.8,8.1c-2.2-3.3-6.2-6.5-6.4-9.8c-1.1-21.4,18.7-44.9,42.8-50.3
		C293.2,399.5,302.9,399.3,312.3,398.3z"/>
	<path class="st0 icon-border" d="M273.4,333.8c-0.1,16-17.6,32.3-31.6,31.3c-3-0.2-5.8-3.3-8.7-5c2.2-2.9,3.9-7.8,6.5-8.3
		c11.2-2.3,17.3-8.2,19.8-19c0.5-2.4,6-6.1,7.8-5.5C270.3,328.4,272.3,332.4,273.4,333.8z"/>
	<path class="st2 icon-border" d="M370.6,365.5c-17.4,0.2-34.4-17.2-32.4-31.2c0.4-2.8,3.5-6.1,6.2-7.4c1.2-0.6,6.4,2.8,6.8,4.9
		c2.5,11.5,8.9,18.4,21,21c2.2,0.5,5.1,5.7,4.5,7.8C375.9,363.2,371.7,364.7,370.6,365.5z"/>
</g>
</svg>
