<?xml version="1.0" encoding="utf-8"?>
<!-- Generator: Adobe Illustrator 21.0.0, SVG Export Plug-In . SVG Version: 6.00 Build 0)  -->
<svg version="1.1" id="Layer_1" xmlns="http://www.w3.org/2000/svg" xmlns:xlink="http://www.w3.org/1999/xlink" x="0px" y="0px"
	 viewBox="0 0 612 792" style="enable-background:new 0 0 612 792;" xml:space="preserve">
<style type="text/css">
	.st0{fill-rule:evenodd;clip-rule:evenodd;fill:#A8DCC0;}
	.st1{fill-rule:evenodd;clip-rule:evenodd;fill:#0C191F;}
</style>
<g>
	<path class="st0" d="M299.2,223c82.1,0.4,149.1,66.2,148.7,146c-0.4,80.1-68.6,144.9-151.8,144.2c-82-0.7-148.8-66.7-148.1-146.6
		C148.7,287,216.6,222.5,299.2,223z M297.8,397.6c-3.8,0-9.4-0.3-15,0.1c-29.7,1.9-52.9,22.3-56.5,50.5c-0.6,4.7,3.3,9.9,5.2,14.8
		c3.2-3.9,8.5-7.5,9.3-11.9c4.5-22.7,19.8-37.2,43.6-38.8c11.1-0.7,22.4-0.6,33.5,0.5c19,1.9,31.3,12.6,37.3,29.9
		c1.3,3.9,0.8,8.5,2.7,12c1.7,3.2,5.4,5.4,8.2,8.1c2.3-3.1,6.7-6.3,6.4-9.2c-0.7-7.7-2.1-15.9-5.6-22.8
		C353.3,403.9,329.2,395.2,297.8,397.6z M370.9,326c0-10.2-8.3-18.2-18.6-18c-10.2,0.2-18.5,8.7-18.2,18.6c0.3,9.7,8,17,18.2,17.1
		C363.1,343.9,370.9,336.5,370.9,326z M243,343.8c10.4-0.1,18.9-8.4,18.6-18.2c-0.3-9.8-9.4-18-19.4-17.6
		c-9.8,0.4-17.5,8.2-17.7,17.8C224.3,336.1,232.3,343.9,243,343.8z"/>
	<path class="st1" d="M297.8,397.6c31.4-2.4,55.5,6.3,69.1,33.4c3.5,6.9,4.9,15.1,5.6,22.8c0.3,2.9-4.2,6.1-6.4,9.2
		c-2.8-2.7-6.5-4.9-8.2-8.1c-1.8-3.6-1.3-8.2-2.7-12c-6-17.4-18.3-28-37.3-29.9c-11.1-1.1-22.4-1.2-33.5-0.5
		c-23.8,1.5-39.1,16.1-43.6,38.8c-0.9,4.4-6.1,7.9-9.3,11.9c-1.8-5-5.8-10.1-5.2-14.8c3.6-28.3,26.8-48.7,56.5-50.5
		C288.4,397.3,294,397.6,297.8,397.6z"/>
	<path class="st1" d="M370.9,326c0,10.5-7.8,17.9-18.6,17.7c-10.2-0.2-17.9-7.4-18.2-17.1c-0.3-9.9,8-18.5,18.2-18.6
		C362.6,307.9,370.8,315.8,370.9,326z"/>
	<path class="st1" d="M243,343.8c-10.6,0.1-18.6-7.7-18.5-18c0.1-9.6,7.9-17.4,17.7-17.8c10.1-0.4,19.2,7.8,19.4,17.6
		C261.9,335.4,253.4,343.7,243,343.8z"/>
</g>
</svg>
