<?xml version="1.0" encoding="utf-8"?>
<!-- Generator: Adobe Illustrator 21.0.0, SVG Export Plug-In . SVG Version: 6.00 Build 0)  -->
<svg version="1.1" id="Layer_1" xmlns="http://www.w3.org/2000/svg" xmlns:xlink="http://www.w3.org/1999/xlink" x="0px" y="0px"
	 viewBox="0 0 612 792" style="enable-background:new 0 0 612 792;" xml:space="preserve">
<style type="text/css">
	.st0{fill-rule:evenodd;clip-rule:evenodd;fill:#A8DCC0;}
	.st1{fill-rule:evenodd;clip-rule:evenodd;fill:#0C191F;}
</style>
<g>
	<path class="st0" d="M184.9,276.8c9.3,21.6,32.5,29.5,54.9,19.5c20-9,21.2-27.7,4-62.7c35.9-22.3,115.8-18.4,163.7,35.8
		c48.7,55.2,45.2,139-9.1,189.7c-55.5,51.9-141.4,52.6-197.9,1.6C147,412.6,139.6,328.7,184.9,276.8z M304.8,390.1
		c-9.4,1-19,1.2-28.1,3.3c-23.8,5.4-43.5,28.6-42.3,49.8c0.2,3.3,4.2,6.5,6.4,9.7c2.6-2.6,5.4-5.1,7.7-8c0.9-1.1,0.4-3.1,0.6-4.7
		c3.4-20.3,19.3-34.1,40.6-35.1c7-0.3,14-0.2,21-0.2c29.7,0.1,43.1,10.9,49.8,39.2c0.8,3.3,5.1,5.9,7.8,8.8c2.1-3.7,6.8-8,6-11
		c-2.7-9.8-5.7-20.2-11.5-28.4C349,394.2,327.8,389.9,304.8,390.1z M266.3,326.3c-1.1-1.3-3.1-5.3-6.1-6.4c-1.7-0.6-7.1,3-7.7,5.5
		c-2.4,10.7-8.5,16.5-19.6,18.8c-2.6,0.5-4.3,5.4-6.4,8.3c2.9,1.7,5.6,4.7,8.6,4.9C248.9,358.3,266.2,342.1,266.3,326.3z
		 M362.4,357.7c1.1-0.8,5.3-2.3,6-4.8c0.6-2.2-2.3-7.3-4.4-7.8c-11.9-2.6-18.3-9.5-20.8-20.8c-0.5-2.1-5.6-5.5-6.8-4.9
		c-2.7,1.3-5.7,4.6-6.1,7.3C328.4,340.6,345.3,357.9,362.4,357.7z"/>
	<path class="st0" d="M222.4,229.1c6.1,10.9,13.8,21.3,17.8,32.9c1.9,5.6-1.5,18-5.4,19.3c-8.8,3-20,2.8-28.9,0
		c-3.4-1.1-6-13.6-4.2-19.5c3.6-11.4,10.6-21.8,16.1-32.6C219.4,229.2,220.9,229.2,222.4,229.1z"/>
	<path class="st1" d="M304.8,390.1c23-0.2,44.2,4.1,58,23.5c5.8,8.2,8.9,18.6,11.5,28.4c0.8,3-3.8,7.3-6,11
		c-2.7-2.9-7.1-5.4-7.8-8.8c-6.7-28.3-20.1-39.1-49.8-39.2c-7,0-14-0.1-21,0.2c-21.3,0.9-37.2,14.7-40.6,35.1
		c-0.3,1.6,0.2,3.6-0.6,4.7c-2.3,2.9-5.1,5.4-7.7,8c-2.2-3.2-6.2-6.4-6.4-9.7c-1.1-21.2,18.6-44.5,42.3-49.8
		C285.8,391.3,295.4,391.1,304.8,390.1z"/>
	<path class="st1" d="M266.3,326.3c-0.1,15.8-17.4,32-31.3,31c-3-0.2-5.7-3.2-8.6-4.9c2.1-2.9,3.8-7.7,6.4-8.3
		c11.1-2.3,17.2-8.1,19.6-18.8c0.5-2.4,6-6.1,7.7-5.5C263.2,320.9,265.2,324.9,266.3,326.3z"/>
	<path class="st1" d="M362.4,357.7c-17.2,0.2-34.1-17.1-32.1-30.9c0.4-2.8,3.4-6,6.1-7.3c1.2-0.6,6.3,2.8,6.8,4.9
		c2.5,11.4,8.9,18.2,20.8,20.8c2.1,0.5,5,5.6,4.4,7.8C367.8,355.3,363.6,356.9,362.4,357.7z"/>
</g>
</svg>
