<?xml version="1.0" encoding="utf-8"?>
<!-- Generator: Adobe Illustrator 21.0.0, SVG Export Plug-In . SVG Version: 6.00 Build 0)  -->
<svg version="1.1" id="Layer_1" xmlns="http://www.w3.org/2000/svg" xmlns:xlink="http://www.w3.org/1999/xlink" x="0px" y="0px"
	 viewBox="0 0 612 792" style="enable-background:new 0 0 612 792;" xml:space="preserve">
<style type="text/css">
	.st0{fill-rule:evenodd;clip-rule:evenodd;fill:#0C191F;}
	.st1{fill-rule:evenodd;clip-rule:evenodd;fill:#418786;}
</style>
<g>
	<path class="st0 icon-border carinha-icon carinha-triste2" d="M445.8,343.2c-0.1,81.7-69.8,149-154.2,148.9c-84.4-0.1-153.9-67.6-153.8-149.2c0.1-81.7,69.8-149,154.2-148.9
		C376.5,194.1,446,261.6,445.8,343.2z M293,208c-76.9-0.4-140.1,59.6-140.7,133.7c-0.6,74.3,61.5,135.8,137.8,136.4
		c77.5,0.7,141-59.7,141.3-134.2C431.8,269.6,369.5,208.4,293,208z"/>
	<path class="st1 icon" d="M293,208c76.5,0.4,138.8,61.6,138.4,135.9c-0.4,74.6-63.9,134.9-141.3,134.2c-76.4-0.6-138.5-62.1-137.8-136.4
		C152.9,267.6,216.1,207.6,293,208z M291.7,370.6c-3.5,0-8.7-0.3-13.9,0c-27.6,1.7-49.3,20.7-52.6,47c-0.6,4.3,3.1,9.2,4.8,13.8
		c3-3.7,7.9-7,8.7-11.1c4.2-21.1,18.5-34.7,40.6-36.1c10.4-0.7,20.9-0.6,31.2,0.5c17.7,1.8,29.1,11.7,34.7,27.9
		c1.2,3.6,0.8,7.9,2.5,11.2c1.6,3,5,5.1,7.6,7.6c2.1-2.9,6.2-5.9,6-8.6c-0.7-7.2-2-14.8-5.2-21.2
		C343.4,376.4,320.9,368.3,291.7,370.6z M359.7,303.9c0-9.5-7.7-16.9-17.3-16.8c-9.4,0.1-17.2,8.1-16.9,17.3
		c0.3,9,7.5,15.8,16.9,15.9C352.4,320.6,359.7,313.7,359.7,303.9z M240.7,320.5c9.7-0.1,17.6-7.8,17.3-16.9
		c-0.3-9.1-8.7-16.8-18.1-16.4c-9.1,0.4-16.3,7.6-16.5,16.6C223.3,313.3,230.8,320.5,240.7,320.5z"/>
	<path class="st0 icon-border" d="M291.7,370.6c29.2-2.2,51.6,5.8,64.4,31.1c3.2,6.4,4.6,14,5.2,21.2c0.3,2.7-3.9,5.7-6,8.6
		c-2.6-2.5-6-4.6-7.6-7.6c-1.7-3.3-1.2-7.6-2.5-11.2c-5.6-16.2-17.1-26.1-34.7-27.9c-10.3-1-20.8-1.1-31.2-0.5
		c-22.2,1.4-36.4,15-40.6,36.1c-0.8,4.1-5.7,7.4-8.7,11.1c-1.7-4.6-5.4-9.4-4.8-13.8c3.3-26.3,24.9-45.3,52.6-47
		C283,370.3,288.2,370.6,291.7,370.6z"/>
	<path class="st0 icon-border" d="M359.7,303.9c0,9.7-7.3,16.7-17.3,16.5c-9.5-0.1-16.6-6.9-16.9-15.9c-0.3-9.2,7.5-17.2,16.9-17.3
		C352,287,359.7,294.4,359.7,303.9z"/>
	<path class="st0 icon-border" d="M240.7,320.5c-9.9,0.1-17.3-7.2-17.2-16.8c0.1-8.9,7.3-16.2,16.5-16.6c9.4-0.4,17.8,7.3,18.1,16.4
		C258.3,312.7,250.4,320.4,240.7,320.5z"/>
</g>
</svg>
