<?xml version="1.0" encoding="utf-8"?>
<!-- Generator: Adobe Illustrator 21.0.0, SVG Export Plug-In . SVG Version: 6.00 Build 0)  -->
<svg version="1.1" id="Layer_1" xmlns="http://www.w3.org/2000/svg" xmlns:xlink="http://www.w3.org/1999/xlink" x="0px" y="0px"
	 viewBox="0 0 612 792" style="enable-background:new 0 0 612 792;" xml:space="preserve">
<style type="text/css">
	.st0{fill-rule:evenodd;clip-rule:evenodd;fill:#A8DCC0;}
	.st1{fill-rule:evenodd;clip-rule:evenodd;fill:#2E3640;}
</style>
<g>
	<path class="st0" d="M315.6,537.2c100.1,0.2,182.2-78.6,182.6-175.3c0.4-96.9-81-176.6-180.8-177.1
		C216.5,184.3,134,263.4,134,360.8C133.9,457.7,215.6,537,315.6,537.2z"/>
	<path class="st0" d="M315.6,537.2C215.6,537,133.9,457.7,134,360.8c0-97.4,82.5-176.6,183.4-176.1c99.8,0.5,181.2,80.2,180.8,177.1
		C497.8,458.6,415.7,537.4,315.6,537.2z M316.4,477c11.4-1.1,23-1.4,34.2-3.5c29.5-5.4,53.1-29.8,55.7-58.2
		c0.5-5.6-4.7-11.6-7.3-17.5c-3.6,4.7-9.4,9-10.4,14.2c-3.4,17.7-11.9,32.1-28.8,39.2c-25.9,10.9-53.5,10.4-79.7,1.8
		c-21.7-7.2-31.7-24.8-34-46.9c-0.3-3.2-6.8-5.8-10.4-8.7c-2.5,3.4-6.2,6.5-7.3,10.2c-1,3.6,0.4,8,1.3,11.9
		C238.5,457,267.9,476.1,316.4,477z M360,308.3c-1,12.4,8.2,22.5,21.1,23.1c12.6,0.6,22.4-7.3,23.4-19.1c1.2-12.6-7.5-23-20.1-24.2
		C372.2,287,360.8,296.3,360,308.3z M249.1,331.5c12.6,0,23-9.9,22.9-21.8c-0.2-11.9-11.1-22-23.3-21.7
		c-11.9,0.3-21.4,9.7-21.7,21.4C226.6,321.9,236.2,331.5,249.1,331.5z"/>
	<path class="st1" d="M316.4,477c-48.5-0.9-77.9-20-86.6-57.4c-0.9-3.9-2.3-8.3-1.3-11.9c1.1-3.8,4.7-6.8,7.3-10.2
		c3.6,2.9,10.1,5.5,10.4,8.7c2.2,22.2,12.2,39.8,34,46.9c26.2,8.6,53.8,9.1,79.7-1.8c16.8-7.1,25.3-21.5,28.8-39.2
		c1-5.2,6.8-9.5,10.4-14.2c2.6,5.8,7.8,11.9,7.3,17.5c-2.6,28.4-26.2,52.8-55.7,58.2C339.4,475.6,327.8,475.9,316.4,477z"/>
	<path class="st1" d="M360,308.3c0.9-12,12.3-21.3,24.5-20.1c12.6,1.2,21.2,11.6,20.1,24.2c-1.1,11.8-10.8,19.7-23.4,19.1
		C368.2,330.8,359,320.7,360,308.3z"/>
	<path class="st1" d="M249.1,331.5c-12.9,0-22.5-9.6-22.2-22.1c0.3-11.7,9.8-21.1,21.7-21.4c12.2-0.4,23.2,9.8,23.3,21.7
		C272.1,321.6,261.7,331.5,249.1,331.5z"/>
</g>
</svg>
